PathFileType	4	(X/Y/Z)	C:\Users\italobelli\Desktop\GitHub\PTbot_officialCBL\Personal_Results\ABD01_noisy2.trc
DataRate	CameraRate	NumFrames	NumMarkers	Units	OrigDataRate	OrigDataStartFrame	OrigNumFrames
104.666667	104.666667	16	9	m	104.666667	1	1100
Frame#	Time		gu		centelbow		EpL		centpxt8		centijc7		ij		ts		aa		ai
			X1	Y1	Z1	X2	Y2	Z2	X3	Y3	Z3	X4	Y4	Z4	X5	Y5	Z5	X6	Y6	Z6	X7	Y7	Z7	X8	Y8	Z8	X9	Y9	Z9

1	0	-0.074708	-0.022067	0.16389	-0.10843	-0.26166	0.19046	-0.08829	-0.25732	0.21526	-0.046816	-0.15316	-0.008669	-0.046816	0.031938	-0.008669	0	0	0	-0.13674	0.031161	0.060088	-0.099246	0.017538	0.17249	-0.16122	-0.079682	0.06035
2	0.0095541	-0.074732	-0.022065	0.16389	-0.10832	-0.26157	0.19034	-0.088186	-0.25723	0.21514	-0.046816	-0.15316	-0.008669	-0.046816	0.031938	-0.008669	0	0	0	-0.13675	0.031152	0.060084	-0.099261	0.017524	0.17249	-0.16123	-0.079691	0.060339
3	0.019108	-0.074757	-0.022064	0.16389	-0.10822	-0.26148	0.19021	-0.088081	-0.25714	0.21501	-0.046816	-0.15316	-0.008669	-0.046816	0.031938	-0.008669	0	0	0	-0.13676	0.031143	0.06008	-0.099277	0.017509	0.17248	-0.16124	-0.0797	0.060329
4	0.028662	-0.074781	-0.022061	0.16388	-0.10812	-0.26138	0.19008	-0.087977	-0.25705	0.21489	-0.046816	-0.15316	-0.008669	-0.046816	0.031938	-0.008669	0	0	0	-0.13677	0.031133	0.060076	-0.099292	0.017495	0.17248	-0.16125	-0.079709	0.060319
5	0.038217	-0.074805	-0.022059	0.16388	-0.10801	-0.26129	0.18996	-0.087873	-0.25695	0.21476	-0.046816	-0.15316	-0.008669	-0.046816	0.031938	-0.008669	0	0	0	-0.13678	0.031124	0.060073	-0.099306	0.017481	0.17248	-0.16126	-0.079718	0.060309
6	0.047771	-0.074828	-0.022056	0.16388	-0.10791	-0.2612	0.18983	-0.087769	-0.25686	0.21463	-0.046816	-0.15316	-0.008669	-0.046816	0.031938	-0.008669	0	0	0	-0.13679	0.031115	0.06007	-0.099321	0.017466	0.17248	-0.16127	-0.079727	0.060301
7	0.057325	-0.074852	-0.022053	0.16388	-0.1078	-0.26111	0.1897	-0.087664	-0.25677	0.2145	-0.046816	-0.15316	-0.008669	-0.046816	0.031938	-0.008669	0	0	0	-0.13679	0.031105	0.060068	-0.099335	0.017452	0.17248	-0.16128	-0.079736	0.060292
8	0.066879	-0.074875	-0.02205	0.16388	-0.1077	-0.26101	0.18957	-0.08756	-0.25668	0.21437	-0.046816	-0.15316	-0.008669	-0.046816	0.031938	-0.008669	0	0	0	-0.1368	0.031096	0.060065	-0.099349	0.017438	0.17248	-0.16129	-0.079746	0.060284
9	0.076433	-0.074899	-0.022046	0.16388	-0.10759	-0.26092	0.18944	-0.087457	-0.25659	0.21425	-0.046816	-0.15316	-0.008669	-0.046816	0.031938	-0.008669	0	0	0	-0.13681	0.031086	0.060063	-0.099362	0.017424	0.17248	-0.1613	-0.079755	0.060277
10	0.085987	-0.074921	-0.022043	0.16388	-0.10749	-0.26083	0.18931	-0.087353	-0.25649	0.21412	-0.046816	-0.15316	-0.008669	-0.046816	0.031938	-0.008669	0	0	0	-0.13682	0.031077	0.060061	-0.099376	0.017411	0.17248	-0.16131	-0.079764	0.06027
11	0.095541	-0.074944	-0.022038	0.16388	-0.10738	-0.26073	0.18918	-0.087249	-0.2564	0.21399	-0.046816	-0.15316	-0.008669	-0.046816	0.031938	-0.008669	0	0	0	-0.13683	0.031067	0.06006	-0.099389	0.017397	0.17247	-0.16132	-0.079773	0.060263
12	0.1051	-0.074966	-0.022034	0.16388	-0.10728	-0.26064	0.18906	-0.087145	-0.25631	0.21386	-0.046816	-0.15316	-0.008669	-0.046816	0.031938	-0.008669	0	0	0	-0.13684	0.031058	0.060059	-0.099401	0.017383	0.17247	-0.16133	-0.079782	0.060257
13	0.11465	-0.074988	-0.02203	0.16389	-0.10718	-0.26055	0.18893	-0.087041	-0.25622	0.21373	-0.046816	-0.15316	-0.008669	-0.046816	0.031938	-0.008669	0	0	0	-0.13684	0.031049	0.060058	-0.099413	0.01737	0.17247	-0.16134	-0.079791	0.060251
14	0.1242	-0.07501	-0.022025	0.16389	-0.10707	-0.26046	0.1888	-0.086938	-0.25613	0.2136	-0.046816	-0.15316	-0.008669	-0.046816	0.031938	-0.008669	0	0	0	-0.13685	0.031039	0.060057	-0.099425	0.017357	0.17248	-0.16135	-0.079801	0.060246
15	0.13376	-0.075031	-0.02202	0.16389	-0.10697	-0.26036	0.18867	-0.086834	-0.25604	0.21348	-0.046816	-0.15316	-0.008669	-0.046816	0.031938	-0.008669	0	0	0	-0.13686	0.03103	0.060057	-0.099437	0.017344	0.17248	-0.16136	-0.07981	0.060242
16	0.14331	-0.075051	-0.022014	0.16389	-0.10687	-0.26027	0.18855	-0.086731	-0.25595	0.21335	-0.046816	-0.15316	-0.008669	-0.046816	0.031938	-0.008669	0	0	0	-0.13687	0.031021	0.060057	-0.099448	0.017331	0.17248	-0.16137	-0.079819	0.060238
